<svg width="18" height="18" viewBox="0 0 18 18" fill="none" xmlns="http://www.w3.org/2000/svg">
<path d="M6.24996 1.66602H2.58329C2.07703 1.66602 1.66663 2.07642 1.66663 2.58268V6.24935C1.66663 6.75561 2.07703 7.16602 2.58329 7.16602H6.24996C6.75622 7.16602 7.16663 6.75561 7.16663 6.24935V2.58268C7.16663 2.07642 6.75622 1.66602 6.24996 1.66602Z" stroke="#64748B" stroke-width="1.5" stroke-linecap="round" stroke-linejoin="round"/>
<path d="M15.4166 1.66602H11.75C11.2437 1.66602 10.8333 2.07642 10.8333 2.58268V6.24935C10.8333 6.75561 11.2437 7.16602 11.75 7.16602H15.4166C15.9229 7.16602 16.3333 6.75561 16.3333 6.24935V2.58268C16.3333 2.07642 15.9229 1.66602 15.4166 1.66602Z" stroke="#64748B" stroke-width="1.5" stroke-linecap="round" stroke-linejoin="round"/>
<path d="M6.24996 10.8327H2.58329C2.07703 10.8327 1.66663 11.2431 1.66663 11.7493V15.416C1.66663 15.9223 2.07703 16.3327 2.58329 16.3327H6.24996C6.75622 16.3327 7.16663 15.9223 7.16663 15.416V11.7493C7.16663 11.2431 6.75622 10.8327 6.24996 10.8327Z" stroke="#64748B" stroke-width="1.5" stroke-linecap="round" stroke-linejoin="round"/>
<path d="M15.4166 10.8327H11.75C11.2437 10.8327 10.8333 11.2431 10.8333 11.7493V15.416C10.8333 15.9223 11.2437 16.3327 11.75 16.3327H15.4166C15.9229 16.3327 16.3333 15.9223 16.3333 15.416V11.7493C16.3333 11.2431 15.9229 10.8327 15.4166 10.8327Z" stroke="#64748B" stroke-width="1.5" stroke-linecap="round" stroke-linejoin="round"/>
</svg>
