<svg width="19" height="18" viewBox="0 0 19 18" fill="none" xmlns="http://www.w3.org/2000/svg">
<path d="M0.75 16.3334L1.94167 12.7584C0.911741 11.2352 0.539161 9.43133 0.8932 7.68222C1.24724 5.93312 2.30381 4.35781 3.86645 3.2492C5.4291 2.14058 7.39149 1.5741 9.38875 1.65508C11.386 1.73606 13.2822 2.45899 14.7248 3.68946C16.1675 4.91993 17.0583 6.57419 17.2317 8.34468C17.4052 10.1152 16.8494 11.8814 15.6677 13.315C14.4861 14.7486 12.7589 15.7519 10.8075 16.1385C8.85602 16.5251 6.81302 16.2686 5.05833 15.4168L0.75 16.3334Z" stroke="#64748B" stroke-width="1.5" stroke-linecap="round" stroke-linejoin="round"/>
<path d="M9 9V9.00917" stroke="#64748B" stroke-width="2" stroke-linecap="round" stroke-linejoin="round"/>
<path d="M5.33337 9V9.00917" stroke="#64748B" stroke-width="2" stroke-linecap="round" stroke-linejoin="round"/>
<path d="M12.6666 9V9.00917" stroke="#64748B" stroke-width="2" stroke-linecap="round" stroke-linejoin="round"/>
</svg>
