<svg width="18" height="18" viewBox="0 0 18 18" fill="none" xmlns="http://www.w3.org/2000/svg">
<path d="M5.33337 17.25H12.6667" stroke="#64748B" stroke-width="1.5" stroke-linecap="round" stroke-linejoin="round"/>
<path d="M9 13.584V17.2507" stroke="#64748B" stroke-width="1.5" stroke-linecap="round" stroke-linejoin="round"/>
<path d="M4.41663 1.66699H13.5833" stroke="#64748B" stroke-width="1.5" stroke-linecap="round" stroke-linejoin="round"/>
<path d="M13.5833 1.66699V9.00033C13.5833 10.2159 13.1004 11.3817 12.2409 12.2412C11.3813 13.1008 10.2155 13.5837 8.99996 13.5837C7.78438 13.5837 6.61859 13.1008 5.75905 12.2412C4.89951 11.3817 4.41663 10.2159 4.41663 9.00033V1.66699" stroke="#64748B" stroke-width="1.5" stroke-linecap="round" stroke-linejoin="round"/>
<path d="M2.58333 8.08366C3.59586 8.08366 4.41667 7.26285 4.41667 6.25033C4.41667 5.2378 3.59586 4.41699 2.58333 4.41699C1.57081 4.41699 0.75 5.2378 0.75 6.25033C0.75 7.26285 1.57081 8.08366 2.58333 8.08366Z" stroke="#64748B" stroke-width="1.5" stroke-linecap="round" stroke-linejoin="round"/>
<path d="M15.4167 8.08366C16.4292 8.08366 17.25 7.26285 17.25 6.25033C17.25 5.2378 16.4292 4.41699 15.4167 4.41699C14.4042 4.41699 13.5834 5.2378 13.5834 6.25033C13.5834 7.26285 14.4042 8.08366 15.4167 8.08366Z" stroke="#64748B" stroke-width="1.5" stroke-linecap="round" stroke-linejoin="round"/>
</svg>
