<svg width="19" height="18" viewBox="0 0 19 18" fill="none" xmlns="http://www.w3.org/2000/svg">
<g clip-path="url(#clip0_1360_10492)">
<path d="M0.937256 9.75195V14.252C0.937494 14.6497 1.09567 15.0311 1.377 15.3122C1.65834 15.5934 2.03981 15.7514 2.43756 15.7514H15.9376C16.1345 15.7515 16.3296 15.7128 16.5116 15.6375C16.6936 15.5622 16.859 15.4518 16.9984 15.3125C17.1377 15.1733 17.2482 15.0079 17.3236 14.826C17.399 14.644 17.4379 14.4489 17.4379 14.252V9.75195" stroke="#74767E" stroke-width="1.8" stroke-miterlimit="10" stroke-linecap="square"/>
<path d="M17.4379 6.0003V3.7503C17.4379 3.3524 17.2798 2.97079 16.9984 2.68943C16.7171 2.40807 16.3355 2.25 15.9376 2.25H2.43756C2.03965 2.25 1.65804 2.40807 1.37668 2.68943C1.09532 2.97079 0.937256 3.3524 0.937256 3.7503V6.0003L9.18756 10.5003L17.4379 6.0003Z" stroke="#74767E" stroke-width="1.8" stroke-miterlimit="10" stroke-linecap="square"/>
</g>
<defs>
<clipPath id="clip0_1360_10492">
<rect width="18" height="16.2" fill="white" transform="translate(0.1875 0.900391)"/>
</clipPath>
</defs>
</svg>
