<svg width="19" height="19" viewBox="0 0 19 19" fill="none" xmlns="http://www.w3.org/2000/svg">
<path d="M7.52837 17.4179H11.8466M3.89678 10.2523L2.54778 11.6022C2.30143 11.8483 2.10599 12.1406 1.97263 12.4623C1.83926 12.784 1.77058 13.1289 1.77051 13.4771C1.77051 14.0627 2.24551 14.5377 2.83192 14.5377H16.5439C17.1294 14.5377 17.6044 14.0627 17.6044 13.4771C17.6043 13.1289 17.5357 12.784 17.4023 12.4623C17.2689 12.1406 17.0735 11.8483 16.8271 11.6022L15.4781 10.2523C15.2394 10.0137 15.05 9.73046 14.9208 9.41868C14.7916 9.1069 14.7251 8.77271 14.7251 8.43521V6.62158C14.7251 5.96003 14.5948 5.30496 14.3416 4.69377C14.0884 4.08258 13.7174 3.52724 13.2496 3.05946C12.7818 2.59168 12.2265 2.22061 11.6153 1.96745C11.0041 1.71429 10.349 1.58398 9.68746 1.58398C9.02584 1.58398 8.3707 1.71431 7.75946 1.96753C7.14821 2.22075 6.59284 2.59189 6.12504 3.05977C5.65725 3.52764 5.2862 4.08308 5.03309 4.69437C4.77998 5.30566 4.64976 5.96082 4.64987 6.62244V8.43608C4.64987 9.11835 4.37869 9.77126 3.89678 10.2532V10.2523Z" stroke="#74767E" stroke-width="1.72727" stroke-linecap="round" stroke-linejoin="round"/>
</svg>
