<svg width="28" height="29" viewBox="0 0 28 29" fill="none" xmlns="http://www.w3.org/2000/svg">
<path fill-rule="evenodd" clip-rule="evenodd" d="M0.529798 4.8766C0 6.15565 0 7.77712 0 11.0201V17.9801C0 21.223 0 22.8445 0.529798 24.1236C1.2362 25.829 2.59113 27.1839 4.29652 27.8903C5.57557 28.4201 7.19704 28.4201 10.44 28.4201H17.4C20.643 28.4201 22.2644 28.4201 23.5435 27.8903C25.2489 27.1839 26.6038 25.829 27.3102 24.1236C27.84 22.8445 27.84 21.223 27.84 17.9801V11.0201C27.84 7.77712 27.84 6.15565 27.3102 4.8766C26.6038 3.17121 25.2489 1.81627 23.5435 1.10988C22.2644 0.580078 20.643 0.580078 17.4 0.580078H10.44C7.19705 0.580078 5.57557 0.580078 4.29652 1.10988C2.59113 1.81627 1.2362 3.17121 0.529798 4.8766ZM16.0554 8.20201C16.0853 8.09372 15.9592 8.01043 15.8713 8.08043L8.10194 14.2708C8.02779 14.3299 8.05198 14.4481 8.14337 14.4733L12.2848 15.6161C12.3466 15.6331 12.3828 15.697 12.3658 15.7588L11.0516 20.5214C11.0217 20.6297 11.1478 20.713 11.2357 20.643L19.0051 14.4526C19.0792 14.3935 19.055 14.2753 18.9636 14.2501L14.8222 13.1073C14.7604 13.0903 14.7242 13.0264 14.7412 12.9646L16.0554 8.20201Z" fill="#293132"/>
</svg>
