<svg width="64" height="64" viewBox="0 0 64 64" fill="none" xmlns="http://www.w3.org/2000/svg">
<path fill-rule="evenodd" clip-rule="evenodd" d="M32 4.94378e-06C16.7315 -0.0084276 3.58394 10.7715 0.599746 25.7455C-2.38444 40.7196 5.6261 55.7162 19.7313 61.5618V31.3905L24.2703 25.5482V63.0543C26.7988 63.6827 29.3946 64.0003 32 64C32.7874 64.0001 33.5645 63.9626 34.3365 63.9056V19.706L38.8755 25.5482V63.2563C41.5617 62.6674 44.16 61.732 46.6053 60.4738V12.1183L51.1442 17.9606V57.6507C62.1932 49.4033 66.7173 35.006 62.3716 21.9211C58.026 8.83619 45.7878 0.00583332 32.0001 0.00694939L32 4.94378e-06Z" fill="#404145"/>
</svg>
